<svg width="126.94" height="30" id="Layer_1" data-name="Layer 1" xmlns="http://www.w3.org/2000/svg" viewBox="0 0 126.94 30"><defs><style>.cls-1{fill:#4ec7c7;}.cls-2{fill:#c78a4e;}.cls-3{fill:#c78a4f;}.cls-4{fill:#4fc7c7;}</style></defs><path class="cls-1" d="M14.15,25.81a6.8,6.8,0,0,1,.24-.68c.81-1.6,1.61-3.19,2.44-4.76a1,1,0,0,0,0-1.07c-1.31-2.39-2.61-4.79-3.91-7.18-.15-.27-.28-.55-.47-.94,1.15,0,2.18,0,3.2,0,.18,0,.4.32.51.54.89,1.67,1.76,3.35,2.69,5.14.27-.55.5-1,.72-1.5.57-1.25,1.11-2.51,1.71-3.75A1,1,0,0,1,22,11.2c.94,0,1.89,0,2.93,0-.14.31-.24.53-.35.74L17.81,25.2c-.1.2-.19.4-.28.61Z"/><path class="cls-1" d="M26.53,21V4.46h3v7.66c3-1.81,5.48-1.61,7.19.5a5.85,5.85,0,0,1-.22,7.25,4.87,4.87,0,0,1-6.92.13c0,.36-.07.68-.1,1ZM32,18.81a2.52,2.52,0,0,0,2.69-2.64,2.64,2.64,0,1,0-5.27-.1A2.52,2.52,0,0,0,32,18.81Z"/><path class="cls-2" d="M106.34,12.24V4.46h2.94V21h-2.92c0-.34,0-.69-.06-1.19A4.64,4.64,0,0,1,102,21.31a4.56,4.56,0,0,1-2.88-1.76,5.77,5.77,0,0,1,.3-7.23A5,5,0,0,1,106.34,12.24Zm0,3.89a2.62,2.62,0,0,0-2.6-2.76,2.68,2.68,0,0,0-2.69,2.77,2.64,2.64,0,0,0,2.66,2.73A2.61,2.61,0,0,0,106.37,16.13Z"/><path class="cls-3" d="M120.36,21c0-.39,0-.69-.07-1-3,1.88-5.42,1.74-7.12-.39a5.74,5.74,0,0,1,.29-7.38,5,5,0,0,1,6.81-.1c0-.32.06-.59.1-.91h2.95V21Zm-5.22-4.95a2.64,2.64,0,1,0,5.28.09,2.64,2.64,0,1,0-5.28-.09Z"/><path class="cls-1" d="M50.21,18.81a4.92,4.92,0,0,1-3.54,2.44,5.72,5.72,0,0,1-6.12-2.31,5.44,5.44,0,0,1,8.78-6.31,4.85,4.85,0,0,1,1.06,3.85h-7.5a2.23,2.23,0,0,0,1.79,2.42,3.15,3.15,0,0,0,3-.81.87.87,0,0,1,.74-.13C49.05,18.19,49.6,18.51,50.21,18.81Zm-7.2-4h4.4A2.09,2.09,0,0,0,45.07,13C43.78,13.1,43.06,13.74,43,14.8Z"/><path class="cls-2" d="M82.54,16.49H75.09a2.08,2.08,0,0,0,1.38,2.27,3,3,0,0,0,3.38-.62.66.66,0,0,1,.93-.15c.5.29,1,.54,1.61.83a4.93,4.93,0,0,1-3.57,2.44,5.71,5.71,0,0,1-5.95-2.16A4.89,4.89,0,0,1,72.39,14a5.15,5.15,0,0,1,4.24-3.06,5.59,5.59,0,0,1,3.48.56A4.76,4.76,0,0,1,82.54,16.49Zm-2.91-1.67A2.11,2.11,0,0,0,77.36,13a2,2,0,0,0-2.2,1.82Z"/><path class="cls-2" d="M95.41,21h-3V17.84c0-.86,0-1.72,0-2.58a1.91,1.91,0,0,0-2-2.06,2,2,0,0,0-2.18,2.05c0,1.66,0,3.33,0,5V21H85.3v-9.8h2.89c0,.28,0,.54.06.9l.62-.45A4.12,4.12,0,0,1,95,12.94a4.24,4.24,0,0,1,.32,1,5.55,5.55,0,0,1,.06,1.08C95.42,17,95.41,19,95.41,21Z"/><path class="cls-2" d="M62.82,18.26s.67.38,1,.52a8,8,0,0,0,1.9.58.94.94,0,0,0,1.07-.82.93.93,0,0,0-.64-1.12l-2.22-1a2.57,2.57,0,0,1-.2-4.62,5.15,5.15,0,0,1,4.41-.45c.51.15,1,.37,1.58.59l-1,1.83c-.71-.23-1.36-.46-2-.63a1.22,1.22,0,0,0-.8,0c-.26.12-.58.37-.62.61a.93.93,0,0,0,.37.77,7.76,7.76,0,0,0,1.33.64l.94.37c1.55.68,2.07,1.43,2,2.85a3,3,0,0,1-2.28,2.85,8,8,0,0,1-6.12-1.2"/><path class="cls-1" d="M12,11.85c-.33.65-.65,1.29-1,1.91-2-.72-3.29-.51-4.15.66a3,3,0,0,0,0,3.42c.85,1.13,2.2,1.35,4.12.63l.49.92.47.94c-1.19,1.28-4.93,1.59-7-.32a5.08,5.08,0,0,1-.58-7.21A5.8,5.8,0,0,1,12,11.85Z"/><path class="cls-4" d="M61.11,11.36a1.7,1.7,0,0,1-.09.29L60,13.82a10,10,0,0,0-1.51-.33,2.15,2.15,0,0,0-2.37,2.26c0,1.51,0,3,0,4.53V21h-3V11.21h3c0,.35,0,.68.09,1.13A3.83,3.83,0,0,1,61.11,11.36Z"/></svg>