<?xml version="1.0" encoding="utf-8"?>
<!-- Generator: Adobe Illustrator 27.1.1, SVG Export Plug-In . SVG Version: 6.00 Build 0)  -->
<svg version="1.1" id="Layer_1" xmlns="http://www.w3.org/2000/svg" xmlns:xlink="http://www.w3.org/1999/xlink" x="0px" y="0px"
	 viewBox="0 0 1124.65 199.92" style="enable-background:new 0 0 1124.65 199.92;" xml:space="preserve">
<style type="text/css">
	.st0{fill:#4EC7C7;}
	.st1{fill:#C78A4E;}
	.st2{fill:#C78A4F;}
	.st3{fill:#4FC7C7;}
</style>
<g>
	<path class="st0" d="M102.58,199.92c0.75-2.14,1.28-4.4,2.29-6.41c7.52-14.89,15.03-29.78,22.81-44.53c1.9-3.61,1.8-6.43-0.15-9.97
		c-12.33-22.37-24.47-44.84-36.65-67.29c-1.37-2.53-2.59-5.14-4.41-8.76c10.75,0,20.38-0.25,29.98,0.24
		c1.71,0.09,3.72,3.03,4.8,5.07c8.32,15.64,16.45,31.39,25.18,48.14c2.48-5.19,4.65-9.57,6.68-14.02
		c5.33-11.72,10.41-23.56,16.06-35.12c0.99-2.02,4.19-4.03,6.47-4.16c8.79-0.48,17.62-0.2,27.43-0.2c-1.37,2.9-2.27,4.96-3.29,6.96
		c-20.98,41.43-41.98,82.86-62.96,124.3c-0.95,1.87-1.71,3.83-2.56,5.75C123.7,199.92,113.14,199.92,102.58,199.92z"/>
	<path class="st0" d="M218.53,155.19c0-52.02,0-103.44,0-155.19c9.34,0,18.32,0,28.1,0c0,23.89,0,47.57,0,71.73
		c27.67-16.89,51.32-15.04,67.35,4.72c15.26,18.81,14.17,50.11-2.06,67.85c-13.08,14.3-40.29,22.33-64.78,1.26
		c-0.33,3.35-0.62,6.33-0.94,9.63C237.01,155.19,228.04,155.19,218.53,155.19z M269.99,134.39c14.84,0.24,25.02-9.76,25.16-24.7
		c0.14-14.64-10.3-25.97-24.19-26.25c-13.92-0.28-25,10.83-25.18,25.25C245.58,123.82,255.32,134.16,269.99,134.39z"/>
	<path class="st1" d="M965.7,72.89c0-24.85,0-48.65,0-72.83c9.29,0,18.22,0,27.48,0c0,51.71,0,103.11,0,155.01
		c-8.97,0-17.9,0-27.36,0c-0.17-3.21-0.33-6.46-0.57-11.12c-11.58,12.41-25.4,16.2-40.73,13.82c-11.04-1.71-19.87-7.74-26.89-16.46
		c-15.19-18.87-13.85-49.9,2.76-67.68C913.29,59.83,941.18,51.62,965.7,72.89z M965.91,109.33c0.01-14.8-10.26-25.76-24.29-25.92
		c-14.14-0.16-25.21,11.28-25.16,25.99c0.05,14.6,10.84,25.67,24.86,25.51C955.68,134.75,965.9,124.12,965.91,109.33z"/>
	<path class="st2" d="M1096.9,155.26c-0.23-3.62-0.42-6.46-0.62-9.53c-28.34,17.56-50.79,16.23-66.68-3.65
		c-16.07-20.1-14.68-51.02,2.74-69.15c14.11-14.69,42.09-19.56,63.72-0.85c0.33-3,0.61-5.53,0.94-8.6c9.04,0,18.16,0,27.65,0
		c0,30.58,0,61.04,0,91.78C1115.29,155.26,1106.32,155.26,1096.9,155.26z M1048.01,108.92c-0.1,15.04,10.57,26.14,24.97,25.98
		c13.99-0.15,24.31-10.76,24.49-25.18c0.19-15.12-10.25-26.28-24.62-26.31C1058.7,83.38,1048.11,94.26,1048.01,108.92z"/>
	<path class="st0" d="M440.14,134.42c-7.78,13.13-19.04,20.32-33.09,22.82c-23.01,4.1-44.24-2.1-57.35-21.62
		c-19.76-29.42-0.37-70.84,34.87-75.17c18.46-2.27,34.92,1.21,47.38,16.04c8.56,10.18,11.39,22.2,9.9,36.08
		c-23.66,0-46.96,0-70.19,0c-0.91,11.18,6.1,20.33,16.76,22.63c10.8,2.34,20.35,0.34,28.57-7.58c1.42-1.37,4.96-1.89,6.88-1.15
		C429.32,128.59,434.43,131.56,440.14,134.42z M372.79,96.83c13.73,0,27.45,0,41.21,0c-1.18-12.06-12.54-17.25-21.91-16.65
		C380.01,80.96,373.22,86.92,372.79,96.83z"/>
	<path class="st1" d="M742.86,112.7c-23.44,0-46.62,0-69.74,0c-0.95,9.84,3.74,17.75,12.9,21.22c11.57,4.38,22.49,3.17,31.6-5.77
		c2.91-2.86,5.18-3.47,8.71-1.43c4.73,2.73,9.71,5.02,15.14,7.79c-7.73,13.2-19.29,20.33-33.47,22.79
		c-21.69,3.76-42.14-1.5-55.65-20.2c-10.8-14.96-12.01-31.49-4.5-48.02c7.63-16.78,21.36-26.14,39.69-28.66
		c11.39-1.57,22.28-0.15,32.53,5.21C736.65,74.29,746.34,93.79,742.86,112.7z M715.64,97.02c-1.53-12.34-11.86-16.93-21.29-17.04
		c-11.62-0.14-19.29,6.36-20.63,17.04C687.58,97.02,701.41,97.02,715.64,97.02z"/>
	<path class="st1" d="M863.37,155.21c-9.82,0-18.59,0-28.01,0c0-10.22,0-20.08,0-29.95c0-8.02,0.15-16.05-0.05-24.07
		c-0.29-12.02-7.38-19.2-18.77-19.34c-12.33-0.15-20.15,6.89-20.4,19.16c-0.31,15.62-0.08,31.24-0.09,46.86c0,2.29,0,4.57,0,7.28
		c-9.26,0-18.03,0-27.34,0c0-30.34,0-60.8,0-91.73c8.89,0,17.82,0,27.01,0c0.2,2.62,0.38,5.07,0.63,8.4
		c2.22-1.6,3.99-2.89,5.78-4.15c20.33-14.38,47.92-8.79,57.67,11.8c1.43,3.01,2.42,6.33,3,9.61c0.59,3.3,0.53,6.73,0.54,10.1
		C863.39,117.71,863.37,136.25,863.37,155.21z"/>
	<path class="st1" d="M558.24,129.27c0,0,6.28,3.54,9.39,4.83c5.7,2.37,11.67,4.59,17.73,5.46c4.95,0.71,8.9-2.48,10.08-7.72
		c1.17-5.19-1.63-8.47-6.07-10.51c-6.88-3.16-13.86-6.12-20.74-9.27c-20.95-9.6-17.24-33.58-1.88-43.24
		c13.03-8.19,27.01-8.44,41.3-4.19c4.79,1.42,9.39,3.49,14.82,5.55c-3.52,6.53-6.51,12.05-9.22,17.08
		c-6.66-2.12-12.73-4.29-18.94-5.9c-2.33-0.6-5.33-0.59-7.43,0.41c-2.42,1.15-5.43,3.45-5.86,5.69c-0.42,2.18,1.48,5.82,3.48,7.22
		c3.72,2.61,8.23,4.13,12.46,5.98c2.89,1.26,5.91,2.23,8.79,3.49c14.48,6.34,19.38,13.35,18.76,26.65
		c-0.61,12.92-7.85,22.81-21.36,26.7c-17.39,5-41.55-0.49-57.3-11.23"/>
	<path class="st0" d="M82.76,69.22c-3.1,6.13-6.11,12.06-9.07,17.91c-19.05-6.8-30.84-4.83-38.91,6.14
		c-6.63,9.01-6.57,23.12,0.12,32.04c7.93,10.58,20.58,12.63,38.53,5.9c1.51,2.8,3.11,5.67,4.62,8.59c1.54,2.97,2.99,5.99,4.41,8.85
		c-11.17,11.98-46.2,14.81-65.46-3.03C-3.3,126.83-5.79,99.45,11.55,78.11C27.81,58.09,61.47,53.55,82.76,69.22z"/>
	<path class="st3" d="M542.26,64.68c-0.38,1.18-0.53,1.99-0.88,2.71c-3.34,6.81-6.71,13.6-10.05,20.32
		c-4.92-1.14-9.49-2.89-14.15-3.14c-13.02-0.7-22.01,8.11-22.1,21.16c-0.09,14.14-0.02,28.28-0.02,42.42c0,2.26,0,4.53,0,7.1
		c-9.73,0-18.7,0-28.08,0c0-30.74,0-61.19,0-92c9.34,0,18.3,0,27.65,0c0.28,3.29,0.53,6.31,0.88,10.52
		C509.3,58.68,524.66,56.01,542.26,64.68z"/>
</g>
</svg>
